<?xml version="1.0" standalone="no"?>
<!DOCTYPE svg PUBLIC "-//W3C//DTD SVG 20010904//EN"
 "http://www.w3.org/TR/2001/REC-SVG-20010904/DTD/svg10.dtd">
<svg version="1.0" xmlns="http://www.w3.org/2000/svg"
 width="466.000000pt" height="466.000000pt" viewBox="0 0 466.000000 466.000000"
 preserveAspectRatio="xMidYMid meet">
<metadata>
Created by potrace 1.14, written by Peter Selinger 2001-2017
</metadata>
<g transform="translate(0.000000,466.000000) scale(0.100000,-0.100000)"
fill="#000000" stroke="none">
<path d="M295 3340 c-3 -6 -8 -59 -6 -77 1 -7 20 -17 44 -23 48 -12 95 -36
118 -60 22 -22 52 -80 42 -80 -5 0 -3 -4 3 -8 23 -16 29 -141 28 -642 -1 -469
-4 -581 -20 -654 -3 -12 -7 -32 -10 -46 -8 -41 -52 -150 -64 -160 -4 -3 -12
-15 -19 -27 -16 -31 -88 -79 -139 -92 -41 -12 -42 -13 -42 -55 l0 -43 360 0
c198 0 360 3 361 6 1 3 2 23 3 44 1 33 -2 39 -24 43 -50 11 -59 15 -97 43 -38
28 -109 142 -96 155 3 3 2 6 -4 6 -5 0 -10 6 -10 13 0 6 -5 36 -12 65 -7 29
-10 59 -7 67 3 8 2 15 -2 15 -11 0 -11 2 -15 460 -2 231 1 427 6 443 15 47 36
35 140 -80 20 -23 37 -44 37 -47 0 -3 10 -16 23 -29 20 -22 65 -73 136 -157
16 -19 39 -46 51 -60 12 -14 38 -45 58 -69 21 -24 46 -54 57 -65 11 -12 31
-34 43 -51 13 -16 49 -59 80 -94 32 -35 63 -73 70 -83 8 -10 25 -31 39 -46 14
-15 42 -47 62 -72 20 -24 43 -51 51 -60 8 -9 33 -38 55 -64 22 -26 51 -60 65
-75 14 -16 41 -47 60 -71 19 -24 47 -57 63 -74 15 -17 48 -61 72 -99 l45 -67
85 0 c91 0 91 0 85 55 -7 58 -3 1460 3 1505 22 156 111 279 224 309 24 6 28
12 29 49 0 23 -3 42 -8 42 -5 0 -7 4 -4 8 3 5 -16 7 -42 5 -55 -5 -56 -5 -104
-1 -21 2 -38 1 -38 -3 0 -7 -76 -3 -97 5 -7 3 -13 2 -13 -2 0 -4 -17 -6 -37
-4 -35 3 -60 3 -130 1 -16 0 -37 0 -48 1 -11 1 -32 -1 -47 -3 -16 -2 -28 -1
-28 3 0 8 -108 6 -116 -3 -3 -3 -7 -24 -8 -45 -2 -39 -1 -40 38 -53 23 -7 47
-17 54 -22 6 -5 12 -7 12 -3 0 13 56 -29 96 -71 37 -39 73 -117 81 -173 1 -8
5 -35 9 -60 4 -25 7 -194 7 -377 0 -347 -3 -375 -42 -354 -30 17 -131 124
-131 140 0 5 -4 11 -9 13 -4 2 -50 53 -101 113 -51 61 -99 117 -107 125 -20
22 -53 60 -98 115 -22 27 -49 59 -60 71 -11 12 -34 40 -51 61 -18 21 -44 51
-58 66 -14 15 -26 30 -26 33 0 3 -10 15 -22 28 -13 12 -41 45 -63 71 -22 27
-46 54 -52 61 -7 7 -13 18 -13 24 0 6 -4 9 -8 6 -7 -4 -51 84 -45 91 1 2 -2
16 -7 33 -5 18 -5 32 1 36 5 3 7 9 4 14 -3 5 -1 11 3 14 5 3 9 16 8 28 -1 22
-4 23 -101 23 -55 0 -108 -3 -117 -8 -11 -5 -18 -4 -18 3 0 8 -6 8 -20 0 -13
-7 -20 -7 -20 -1 0 7 -8 7 -23 2 -13 -5 -30 -6 -37 -1 -7 4 -25 4 -40 0 -15
-4 -33 -4 -40 0 -7 4 -25 4 -40 0 -15 -4 -33 -4 -40 0 -7 4 -25 4 -41 0 -15
-5 -30 -6 -32 -3 -7 6 -158 10 -162 3z m587 -49 c4 -1 3 -13 -2 -27 -25 -65
-3 -143 64 -224 64 -78 109 -131 131 -154 35 -39 117 -136 139 -164 11 -15 32
-37 46 -49 14 -13 22 -23 18 -23 -3 0 8 -15 25 -33 18 -19 48 -53 67 -76 19
-24 42 -51 50 -61 25 -29 109 -128 205 -240 50 -57 99 -116 110 -129 11 -13
25 -29 30 -35 6 -6 35 -40 65 -76 30 -36 61 -71 67 -78 7 -7 19 -23 28 -34 8
-12 17 -19 20 -16 8 8 7 396 0 408 -4 6 -3 10 2 10 9 0 10 479 0 503 -3 9 -2
17 4 17 6 0 8 3 5 8 -2 4 -7 39 -11 77 -7 63 -12 106 -14 113 -1 1 -1 4 -1 7
0 3 -7 19 -15 35 -9 17 -12 30 -8 30 5 0 3 4 -2 8 -6 4 -16 19 -24 34 -26 51
-81 100 -149 134 -37 19 -65 34 -62 35 23 5 560 2 560 -3 0 -3 -19 -18 -42
-32 -24 -14 -52 -34 -63 -43 -28 -24 -88 -113 -88 -130 0 -7 -4 -13 -8 -13 -7
0 -25 -96 -21 -112 1 -5 -2 -8 -6 -8 -4 0 -8 -103 -7 -230 0 -147 -4 -230 -10
-230 -7 0 -7 -3 0 -8 12 -8 14 -1061 3 -1063 -10 -2 -45 -2 -60 0 -6 1 -9 3
-6 6 5 6 -14 32 -54 76 -10 10 -18 22 -18 27 0 4 -8 15 -17 24 -10 9 -27 27
-38 41 -50 62 -102 123 -122 143 -13 12 -23 25 -23 30 0 5 -8 16 -17 25 -10 8
-36 36 -58 63 -22 26 -53 62 -68 79 -51 59 -62 72 -112 132 -28 33 -52 62 -55
65 -8 7 -123 143 -135 158 -5 7 -25 28 -42 47 -18 20 -33 38 -33 41 0 3 -10
15 -22 28 -24 24 -51 55 -107 121 -84 100 -118 139 -139 161 -13 13 -20 24
-17 24 3 0 -8 13 -25 30 -16 16 -30 34 -30 40 0 6 -4 8 -10 5 -5 -3 -10 -1
-10 6 0 6 -8 19 -18 28 -10 9 -42 48 -72 86 -29 39 -57 74 -60 78 -4 5 -7
-244 -6 -552 0 -309 3 -561 6 -561 3 0 5 -21 5 -48 0 -26 3 -53 8 -59 5 -7 7
-13 4 -13 -3 0 -1 -15 4 -32 6 -18 12 -44 15 -58 7 -33 49 -120 71 -145 10
-11 39 -36 66 -55 47 -33 48 -49 4 -44 -12 1 -22 3 -22 4 0 1 -8 3 -18 5 -9 2
-15 0 -13 -3 5 -8 -68 -7 -81 1 -5 3 -15 2 -23 -3 -8 -5 -22 -4 -33 2 -11 5
-17 6 -14 1 6 -10 -56 -8 -74 2 -7 5 -10 4 -7 -1 5 -7 -125 -11 -189 -5 -25 2
-13 17 28 35 47 21 102 72 125 119 9 17 20 34 23 37 20 15 68 227 66 294 0 25
2 46 5 46 6 0 3 992 -3 1061 -2 26 -7 50 -10 55 -3 5 -8 26 -12 47 -4 20 -11
37 -17 37 -5 0 -7 4 -4 9 3 4 -3 16 -14 26 -11 10 -20 24 -20 32 0 8 -4 12 -9
8 -6 -3 -13 1 -18 8 -4 8 -27 22 -50 32 -24 11 -43 21 -43 24 0 5 481 6 512 2z"/>
<path d="M525 3251 c-2 -2 9 -27 24 -55 16 -28 37 -67 47 -86 11 -19 24 -38
29 -42 6 -4 6 -8 2 -8 -4 0 -3 -6 3 -12 6 -7 33 -46 59 -86 26 -39 51 -69 54
-65 4 3 7 0 7 -7 0 -7 8 -20 18 -29 9 -9 42 -45 72 -81 30 -36 58 -66 62 -68
5 -2 8 -8 8 -13 0 -6 10 -20 23 -32 12 -12 45 -49 72 -82 51 -61 107 -125 138
-157 9 -10 15 -18 12 -18 -2 0 6 -11 18 -23 45 -49 137 -156 137 -161 0 -2 18
-23 40 -45 22 -22 40 -43 40 -46 0 -5 12 -19 75 -90 11 -12 29 -33 40 -46 11
-13 64 -76 119 -139 54 -63 108 -126 120 -140 88 -103 166 -198 166 -204 0 -6
37 -46 43 -46 5 0 -3 303 -8 325 -3 11 -22 38 -43 61 -20 22 -57 65 -82 95
-25 29 -55 64 -67 77 -13 12 -23 25 -23 28 0 4 -48 59 -87 100 -7 7 -13 15
-13 17 0 3 -15 21 -32 40 -18 18 -49 53 -68 76 -19 23 -39 48 -45 54 -5 7 -35
41 -65 77 -30 36 -61 72 -70 81 -8 9 -29 34 -46 55 -18 22 -48 57 -68 79 -20
21 -46 52 -59 69 -12 16 -37 45 -54 64 -18 18 -33 36 -33 38 0 3 -15 22 -34
42 -75 82 -106 117 -106 124 0 3 -15 22 -32 42 -50 53 -57 63 -51 70 4 3 1 6
-6 6 -7 0 -11 6 -8 13 3 7 -1 21 -9 32 -8 10 -14 42 -14 69 l0 51 -151 0 c-82
0 -152 -1 -154 -4z m260 -53 c3 -2 6 -13 8 -24 14 -71 20 -93 27 -89 6 4 21
-30 19 -44 -1 -2 6 -8 15 -13 9 -5 16 -16 16 -23 0 -8 4 -15 8 -15 4 0 37 -35
72 -77 36 -43 67 -80 70 -83 8 -8 72 -82 120 -139 25 -30 56 -67 70 -82 14
-15 37 -42 52 -61 15 -19 37 -46 50 -60 52 -57 78 -88 78 -93 0 -3 14 -19 30
-35 17 -16 30 -32 30 -34 0 -3 10 -16 23 -29 12 -13 41 -45 64 -73 23 -27 51
-60 63 -74 12 -14 40 -47 63 -74 23 -28 81 -95 128 -150 47 -56 94 -111 104
-123 15 -17 19 -40 19 -103 1 -44 -2 -80 -5 -80 -7 0 -83 83 -144 155 -22 26
-52 61 -67 76 -15 16 -25 29 -23 29 3 0 -3 8 -12 18 -30 31 -73 82 -76 89 -1
3 -15 21 -32 38 -34 36 -51 55 -160 185 -44 52 -84 100 -90 106 -5 6 -28 33
-50 60 -22 26 -51 60 -65 74 -14 14 -41 46 -60 70 -19 25 -42 52 -50 60 -8 9
-35 40 -60 70 -25 29 -54 64 -65 77 -11 12 -36 41 -55 64 -19 23 -40 47 -46
53 -11 12 -140 174 -152 192 -4 5 -13 21 -21 34 -49 85 -62 113 -58 123 4 11
151 16 162 5z"/>
<path d="M687 3124 c5 -15 40 -22 72 -14 21 5 22 7 8 18 -19 16 -87 13 -80 -4z"/>
<path d="M735 3050 c-2 -3 2 -12 8 -20 11 -13 20 -15 64 -11 7 1 10 7 7 15 -5
14 -72 28 -79 16z"/>
<path d="M805 2960 c-7 -11 12 -33 23 -26 6 3 13 0 15 -6 4 -10 6 -10 6 -1 1
7 7 10 15 7 21 -8 29 13 8 21 -23 11 -62 13 -67 5z"/>
<path d="M877 2876 c-8 -19 5 -27 47 -30 28 -3 33 0 29 15 -4 12 -12 17 -27
15 -11 -2 -26 1 -32 6 -8 5 -14 3 -17 -6z"/>
<path d="M950 2785 c0 -15 27 -30 53 -30 44 -1 30 29 -16 33 -20 2 -37 0 -37
-3z"/>
<path d="M1025 2700 c-8 -12 17 -26 53 -29 30 -2 32 -1 22 16 -12 18 -66 28
-75 13z"/>
<path d="M1098 2614 c6 -3 10 -10 6 -15 -5 -9 5 -11 46 -11 38 0 42 2 28 15
-7 7 -31 14 -53 14 -22 1 -34 0 -27 -3z"/>
<path d="M1174 2529 c-11 -18 21 -34 55 -29 27 4 31 7 20 16 -19 15 -68 23
-75 13z"/>
<path d="M1250 2435 c0 -17 42 -30 67 -21 23 9 4 26 -36 31 -22 3 -31 0 -31
-10z"/>
<path d="M1327 2356 c-7 -19 11 -32 42 -32 27 1 42 25 17 27 -24 2 -30 4 -42
12 -7 4 -14 0 -17 -7z"/>
<path d="M1417 2272 c-16 -2 -27 -8 -25 -13 2 -6 6 -9 9 -7 3 2 13 -3 21 -10
9 -7 23 -9 35 -5 17 7 17 10 3 23 -8 8 -28 14 -43 12z"/>
<path d="M1479 2180 c-22 -14 2 -31 41 -28 29 1 37 5 29 14 -12 15 -54 23 -70
14z"/>
<path d="M1546 2083 c9 -9 31 -18 50 -19 28 -1 31 1 22 15 -6 9 -26 17 -49 18
-38 3 -39 2 -23 -14z"/>
<path d="M1620 2001 c0 -13 11 -19 43 -25 22 -4 27 -1 27 15 0 15 -7 19 -35
19 -19 0 -35 -4 -35 -9z"/>
<path d="M1694 1914 c3 -9 6 -18 6 -20 0 -2 16 -4 35 -4 56 0 44 27 -16 35
-24 3 -29 1 -25 -11z"/>
<path d="M1760 1830 c-9 -6 -6 -10 11 -16 33 -11 69 -12 75 -3 11 19 -60 35
-86 19z"/>
<path d="M1836 1751 c-4 -6 -2 -11 3 -11 6 0 11 -6 11 -14 0 -9 7 -12 20 -9
11 3 20 12 20 20 0 9 -6 13 -14 10 -7 -3 -18 -1 -24 5 -6 6 -12 6 -16 -1z"/>
<path d="M1830 3250 c0 -4 10 -15 23 -27 28 -25 69 -73 62 -73 -3 0 2 -11 10
-24 15 -22 26 -55 27 -83 1 -7 5 -13 10 -13 5 0 7 -4 3 -9 -3 -5 -2 -12 3 -15
5 -3 9 1 9 8 0 28 47 145 56 139 6 -3 7 -1 3 5 -4 6 10 29 30 52 20 22 32 40
28 41 -37 5 -264 3 -264 -1z m183 -64 c-4 -6 -13 -21 -21 -34 l-14 -22 -18 32
c-20 37 -13 46 30 40 19 -3 27 -8 23 -16z"/>
<path d="M585 1760 c-4 -6 -8 -23 -11 -38 -14 -79 -85 -226 -120 -245 -30 -17
-2 -22 118 -22 120 0 154 7 142 26 -3 5 -9 7 -13 5 -4 -3 -14 10 -21 29 -8 19
-17 35 -21 35 -7 0 -39 73 -45 105 -2 11 -7 31 -10 45 -4 14 -6 35 -6 48 0 24
-3 27 -13 12z m63 -250 c4 -3 8 -11 10 -17 1 -9 -15 -13 -58 -13 -33 0 -60 4
-60 10 0 6 5 10 10 10 6 0 10 7 10 15 0 8 5 15 10 15 6 0 10 4 10 9 0 5 5 22
11 38 l10 27 20 -44 c11 -24 23 -47 27 -50z"/>
<path d="M2412 3335 c-4 -5 -7 -27 -8 -48 0 -35 2 -38 39 -48 65 -17 80 -28
165 -124 10 -11 24 -33 32 -50 8 -16 18 -32 21 -35 3 -3 25 -41 49 -85 23 -44
47 -86 53 -92 5 -7 6 -13 1 -13 -5 0 -4 -4 2 -8 10 -6 34 -49 121 -212 20 -36
39 -69 43 -75 23 -31 129 -243 123 -248 -3 -4 -2 -7 4 -7 12 0 12 8 12 -270 1
-306 -3 -340 -46 -428 -29 -59 -81 -108 -127 -118 -45 -9 -53 -19 -51 -61 l1
-38 461 -1 460 -1 -1 46 c-1 33 -5 46 -16 47 -17 1 -44 10 -79 27 -52 26 -121
142 -123 209 -1 15 -4 28 -7 28 -4 0 -6 123 -5 273 1 296 8 355 54 442 53 98
144 260 149 265 4 3 19 32 36 65 16 33 32 62 35 65 3 3 14 21 24 40 33 60 128
205 137 208 5 2 9 8 9 14 0 31 137 133 189 141 11 2 24 7 28 11 12 12 11 71
-1 81 -13 12 -76 13 -76 2 0 -4 -9 -3 -19 3 -14 7 -22 7 -26 0 -5 -8 -11 -7
-21 1 -8 6 -14 8 -14 3 0 -5 -20 -9 -45 -9 -25 0 -45 4 -45 8 0 5 -4 6 -9 2
-14 -8 -71 -13 -71 -6 0 3 -17 5 -37 3 -43 -3 -78 -4 -108 -2 -11 1 -32 -1
-47 -3 -16 -2 -28 -1 -28 2 0 4 -27 7 -60 6 -65 0 -66 -1 -69 -62 -1 -20 4
-33 11 -34 87 -8 114 -15 148 -41 40 -29 53 -68 47 -132 -4 -48 -15 -74 -74
-188 -8 -16 -19 -28 -24 -28 -6 0 -8 -4 -4 -9 3 -5 -1 -15 -8 -23 -7 -7 -19
-28 -26 -45 -7 -18 -17 -33 -22 -33 -5 0 -9 -4 -9 -10 0 -18 -92 -160 -104
-160 -6 0 -20 10 -31 23 -10 12 -18 22 -17 22 1 0 -3 15 -10 33 -7 17 -16 32
-20 32 -4 0 -8 4 -8 9 0 5 -31 64 -68 132 -114 209 -131 244 -136 284 -9 72
43 138 102 129 12 -2 23 1 23 6 5 39 4 77 -2 85 -6 8 -199 12 -219 5 -14 -5
-38 -5 -62 2 -16 3 -28 4 -28 0 0 -4 -20 -7 -45 -7 -25 0 -45 4 -45 8 0 4 -10
3 -21 -4 -17 -9 -20 -8 -14 2 6 8 4 10 -5 4 -18 -11 -50 -12 -82 -4 -16 4 -28
5 -28 1 0 -8 -58 -8 -66 0 -3 4 -18 3 -32 -1 -25 -6 -49 -6 -62 -1 -18 7 -163
3 -168 -5z m758 -47 c0 -3 -12 -10 -28 -16 -34 -12 -94 -61 -87 -72 3 -5 0
-10 -6 -12 -5 -2 -12 -30 -14 -63 -3 -53 0 -69 30 -128 19 -37 31 -67 27 -67
-4 0 -2 -4 4 -8 6 -4 28 -38 49 -77 58 -108 96 -176 120 -220 64 -115 85 -159
106 -228 12 -42 26 -74 31 -71 5 3 6 10 3 15 -4 5 -2 9 3 9 5 0 9 6 9 13 0 13
81 179 92 187 3 3 17 25 30 50 14 25 58 101 99 170 109 184 133 234 135 288 0
6 5 12 11 12 6 0 5 5 -2 12 -8 8 -9 15 -1 25 7 8 8 13 2 13 -6 0 -10 8 -9 18
2 27 -40 90 -75 111 -18 11 -50 23 -71 26 -21 4 -38 10 -38 13 0 9 508 8 517
-1 3 -4 -3 -7 -15 -7 -11 0 -24 -5 -27 -10 -4 -6 -11 -8 -16 -5 -5 4 -42 -27
-81 -67 -60 -60 -98 -116 -210 -303 -75 -127 -142 -242 -149 -257 -6 -15 -16
-25 -22 -21 -6 3 -7 2 -4 -4 3 -5 -15 -45 -41 -89 -26 -43 -60 -108 -76 -144
-15 -36 -31 -74 -36 -85 -5 -11 -13 -36 -18 -56 -10 -38 -9 -507 1 -547 18
-71 39 -122 50 -122 5 0 6 -4 3 -9 -7 -10 49 -71 85 -93 14 -9 42 -20 62 -23
25 -5 34 -11 30 -21 -4 -12 -8 -12 -21 -2 -9 7 -13 8 -9 2 6 -10 -15 -11 -60
-3 -4 1 -10 0 -13 -1 -17 -6 -90 -4 -90 3 0 5 -8 6 -17 2 -31 -12 -48 -13 -60
-2 -9 6 -13 6 -13 -2 0 -7 -5 -9 -12 -5 -14 9 -58 12 -58 4 0 -3 -18 -5 -40
-5 -22 0 -40 4 -40 9 0 6 -5 5 -12 -2 -8 -8 -17 -8 -31 -1 -11 6 -17 7 -14 2
3 -4 -19 -8 -49 -8 -30 0 -54 4 -54 8 0 4 -8 4 -17 0 -27 -13 -96 -9 -101 5
-2 7 7 16 20 21 29 13 88 65 88 80 0 6 4 11 9 11 9 0 46 87 56 130 8 39 16
140 15 193 0 26 0 54 0 62 0 27 0 45 -1 58 0 6 1 40 2 74 1 35 0 66 -4 69 -3
3 -2 17 3 30 6 16 6 24 -1 24 -6 0 -6 6 0 19 6 10 8 21 5 24 -3 3 -7 22 -10
43 -2 22 -13 58 -24 81 -11 24 -20 47 -20 52 0 5 -3 11 -7 13 -8 3 -47 74
-103 183 -14 27 -31 55 -37 63 -7 7 -13 17 -13 22 0 4 -18 39 -39 77 -79 138
-102 179 -119 213 -9 19 -20 37 -23 40 -3 3 -16 25 -30 50 -13 25 -30 51 -36
58 -7 7 -13 17 -13 21 0 23 -105 112 -150 128 -27 9 -45 20 -41 23 13 7 711 6
711 -2z"/>
<path d="M2618 3252 c-13 -3 -11 -9 11 -30 43 -43 91 -109 84 -115 -3 -4 2 -9
11 -13 9 -3 16 -11 16 -16 0 -6 13 -32 29 -58 16 -27 27 -51 24 -54 -4 -3 -1
-6 5 -6 7 0 12 -6 12 -14 0 -8 3 -16 8 -18 4 -1 20 -29 36 -61 16 -31 33 -60
37 -63 5 -3 7 -10 4 -15 -4 -5 -3 -9 2 -9 4 0 14 -15 22 -32 8 -18 17 -35 21
-38 3 -3 14 -21 23 -40 29 -60 73 -139 87 -155 7 -8 9 -15 4 -15 -5 0 -4 -4 2
-8 5 -4 25 -38 42 -77 18 -38 36 -77 41 -85 4 -8 7 -23 5 -32 -1 -10 1 -18 6
-18 10 0 6 -559 -5 -620 -4 -25 -13 -54 -19 -65 -5 -11 -11 -22 -11 -25 -1 -9
-28 -54 -39 -67 -36 -40 -37 -43 -24 -44 31 -3 428 -4 428 -1 0 2 -16 22 -35
45 -19 22 -35 48 -35 57 0 9 -4 20 -10 26 -5 5 -11 22 -12 37 -1 15 -5 27 -9
27 -3 0 -7 15 -7 33 0 17 -1 34 -2 37 -2 3 -4 124 -5 270 -1 146 -5 283 -9
305 -10 59 -49 175 -59 175 -4 0 -5 5 -2 10 3 6 1 10 -4 10 -6 0 -10 3 -9 8 2
12 -41 99 -57 112 -8 7 -12 16 -9 21 3 5 -4 18 -15 30 -11 12 -18 26 -15 31 3
4 1 8 -4 8 -5 0 -12 8 -15 18 -3 9 -24 49 -47 87 -22 39 -48 86 -56 105 -9 19
-22 42 -29 50 -8 8 -14 18 -15 22 -1 13 -11 42 -19 58 -12 24 -14 130 -2 130
6 0 8 6 6 13 -3 6 6 24 20 40 14 15 25 28 23 28 -7 3 -416 4 -430 1z m338 -56
c11 -4 12 -11 6 -23 -5 -10 -8 -43 -6 -73 6 -80 7 -90 16 -90 4 0 8 -6 8 -12
0 -7 7 -26 16 -43 9 -16 30 -57 47 -90 17 -33 34 -62 37 -65 4 -3 20 -32 37
-65 16 -33 50 -97 76 -142 25 -46 43 -83 40 -83 -3 0 2 -9 12 -20 10 -11 15
-20 12 -20 -4 0 2 -15 13 -32 11 -18 20 -40 20 -50 0 -9 4 -18 9 -20 17 -6 24
-97 27 -363 1 -143 5 -276 7 -295 12 -89 33 -171 48 -180 4 -3 9 -12 11 -20 2
-12 -19 -14 -128 -15 -100 -1 -131 2 -131 12 0 7 4 13 7 13 11 0 47 89 55 135
12 72 15 147 15 370 -1 243 -2 267 -19 308 -6 16 -11 35 -11 43 0 8 -4 14 -10
14 -5 0 -9 3 -8 8 1 4 -5 21 -12 37 -7 17 -13 33 -12 38 1 4 -2 7 -6 7 -5 0
-17 19 -28 43 -10 23 -21 44 -24 47 -3 3 -18 30 -34 60 -16 30 -34 58 -40 62
-6 4 -7 8 -2 8 5 0 4 6 -2 13 -6 6 -26 42 -46 80 -53 100 -60 111 -71 119 -5
4 -6 8 -1 8 5 0 4 6 -2 13 -5 6 -25 39 -42 72 -18 33 -52 89 -76 124 -24 36
-41 67 -39 70 4 8 211 4 231 -3z"/>
<path d="M2866 3141 c-10 -4 -31 -6 -47 -5 -24 2 -27 -1 -20 -15 8 -14 49 -18
124 -12 12 1 3 26 -9 26 -5 0 -13 3 -19 6 -5 4 -18 3 -29 0z"/>
<path d="M2885 3052 c-41 -7 -47 -11 -34 -24 10 -11 24 -13 86 -9 18 1 5 28
-15 33 -9 2 -26 2 -37 0z"/>
<path d="M2893 2957 c-8 -13 5 -20 42 -23 25 -2 35 1 35 11 0 16 -1 17 -43 19
-16 1 -31 -2 -34 -7z"/>
<path d="M2950 2876 c-9 -12 -8 -16 7 -23 27 -14 58 -10 58 7 0 8 -7 15 -15
15 -8 0 -20 4 -26 8 -7 4 -17 0 -24 -7z"/>
<path d="M3013 2792 c-39 -6 -27 -30 17 -34 27 -2 40 0 40 9 0 17 -30 30 -57
25z"/>
<path d="M3049 2699 c-20 -12 1 -29 36 -29 27 0 32 3 28 18 -4 18 -42 25 -64
11z"/>
<path d="M3090 2605 c0 -8 6 -15 13 -16 6 0 24 -2 39 -4 27 -4 34 12 13 27
-19 14 -65 9 -65 -7z"/>
<path d="M3137 2525 c-8 -20 11 -32 43 -27 46 7 39 26 -12 36 -16 3 -28 -1
-31 -9z"/>
<path d="M3183 2443 c-23 -8 14 -34 46 -31 23 2 28 6 22 17 -9 14 -46 22 -68
14z"/>
<path d="M3210 2344 c0 -8 6 -14 13 -15 6 0 19 -2 28 -4 21 -4 43 10 35 23
-10 16 -76 12 -76 -4z"/>
<path d="M3248 2272 c-10 -2 -18 -9 -18 -17 0 -14 26 -23 53 -17 9 2 17 9 17
17 0 14 -26 23 -52 17z"/>
<path d="M3247 2182 c-29 -6 -14 -27 21 -30 26 -3 32 0 32 15 0 18 -15 23 -53
15z"/>
<path d="M3233 2085 c0 -8 3 -15 6 -16 3 0 16 -2 27 -5 12 -2 27 3 34 11 7 8
9 16 4 16 -64 8 -71 8 -71 -6z"/>
<path d="M3236 1995 c4 -8 10 -16 15 -16 34 -5 44 -2 47 14 3 14 -4 17 -32 17
-27 0 -34 -3 -30 -15z"/>
<path d="M3236 1914 c-7 -17 3 -24 34 -24 33 0 43 9 27 24 -16 15 -55 15 -61
0z"/>
<path d="M3239 1836 c0 0 -2 -8 -4 -18 -2 -13 4 -16 32 -13 57 5 60 25 3 30
-16 1 -30 2 -31 1z"/>
<path d="M3236 1741 c-7 -11 14 -28 32 -25 6 1 19 2 27 3 8 0 12 7 9 16 -7 16
-59 21 -68 6z"/>
<path d="M3220 1655 c0 -5 5 -17 10 -25 9 -13 10 -13 10 0 0 12 2 12 9 1 6 -9
11 -10 15 -3 4 6 13 9 21 5 8 -3 23 -2 33 2 16 6 15 7 -3 18 -25 14 -95 16
-95 2z"/>
<path d="M3193 1567 c-10 -16 9 -22 78 -22 49 0 69 3 69 12 0 15 3 15 -78 17
-35 1 -66 -2 -69 -7z"/>
<path d="M3770 3247 c0 -5 9 -22 21 -38 14 -20 21 -47 22 -84 1 -30 5 -55 9
-55 4 0 16 17 27 38 18 33 43 67 84 112 30 33 25 35 -69 35 -52 0 -94 -3 -94
-8z m105 -57 c-3 -5 -10 -10 -16 -10 -5 0 -9 5 -9 10 0 6 7 10 16 10 8 0 12
-4 9 -10z"/>
</g>
</svg>
